<svg version="1.1" viewBox="0.0 0.0 960.0 720.0" fill="none" stroke="none" stroke-linecap="square" stroke-miterlimit="10" xmlns:xlink="http://www.w3.org/1999/xlink" xmlns="http://www.w3.org/2000/svg"><clipPath id="p.0"><path d="m0 0l960.0 0l0 720.0l-960.0 0l0 -720.0z" clip-rule="nonzero"/></clipPath><g clip-path="url(#p.0)"><path fill="#000000" fill-opacity="0.0" d="m0 0l960.0 0l0 720.0l-960.0 0z" fill-rule="evenodd"/><path fill="#000000" fill-opacity="0.0" d="m32.014435 270.68112l895.9685 340.85037" fill-rule="evenodd"/><path stroke="#000000" stroke-width="16.0" stroke-linejoin="round" stroke-linecap="butt" d="m32.014435 270.68112l895.9685 340.85037" fill-rule="evenodd"/><path fill="#ffff00" d="m352.67453 255.84251l0 0c0 -101.39426 81.15985 -183.59055 181.2756 -183.59055l0 0c48.07727 0 94.185425 19.342522 128.18121 53.77243c33.995728 34.4299 53.09436 81.12688 53.09436 129.81812l0 0c0 101.39427 -81.15985 183.59056 -181.27557 183.59056l0 0c-100.11575 0 -181.2756 -82.19629 -181.2756 -183.59056z" fill-rule="evenodd"/><path stroke="#000000" stroke-width="3.0" stroke-linejoin="round" stroke-linecap="butt" d="m352.67453 255.84251l0 0c0 -101.39426 81.15985 -183.59055 181.2756 -183.59055l0 0c48.07727 0 94.185425 19.342522 128.18121 53.77243c33.995728 34.4299 53.09436 81.12688 53.09436 129.81812l0 0c0 101.39427 -81.15985 183.59056 -181.27557 183.59056l0 0c-100.11575 0 -181.2756 -82.19629 -181.2756 -183.59056z" fill-rule="evenodd"/></g></svg>