<svg version="1.1" viewBox="0.0 0.0 960.0 720.0" fill="none" stroke="none" stroke-linecap="square" stroke-miterlimit="10" xmlns:xlink="http://www.w3.org/1999/xlink" xmlns="http://www.w3.org/2000/svg"><clipPath id="p.0"><path d="m0 0l960.0 0l0 720.0l-960.0 0l0 -720.0z" clip-rule="nonzero"/></clipPath><g clip-path="url(#p.0)"><path fill="#000000" fill-opacity="0.0" d="m0 0l960.0 0l0 720.0l-960.0 0z" fill-rule="evenodd"/><path fill="#000000" fill-opacity="0.0" d="m255.73228 153.81627l285.03937 106.20473" fill-rule="evenodd"/><path stroke="#000000" stroke-width="8.0" stroke-linejoin="round" stroke-linecap="butt" d="m255.73228 153.81627l285.03937 106.20473" fill-rule="evenodd"/><path fill="#ffff00" d="m415.46457 164.57217l0 0c0 -35.641937 28.893494 -64.53543 64.53543 -64.53543l0 0c17.115875 0 33.5307 6.7992554 45.633423 18.901993c12.102783 12.102737 18.902039 28.517578 18.902039 45.63344l0 0c0 35.641937 -28.893555 64.53543 -64.53546 64.53543l0 0c-35.641937 0 -64.53543 -28.893494 -64.53543 -64.53543z" fill-rule="evenodd"/><path stroke="#000000" stroke-width="3.0" stroke-linejoin="round" stroke-linecap="butt" d="m415.46457 164.57217l0 0c0 -35.641937 28.893494 -64.53543 64.53543 -64.53543l0 0c17.115875 0 33.5307 6.7992554 45.633423 18.901993c12.102783 12.102737 18.902039 28.517578 18.902039 45.63344l0 0c0 35.641937 -28.893555 64.53543 -64.53546 64.53543l0 0c-35.641937 0 -64.53543 -28.893494 -64.53543 -64.53543z" fill-rule="evenodd"/></g></svg>